<svg width="111" height="110" viewBox="0 0 111 110" fill="none" xmlns="http://www.w3.org/2000/svg">
<ellipse cx="55.5941" cy="55" rx="54.865" ry="55" fill="#E1F1FF"/>
<path d="M35.0697 73.5C34.4833 73.5 33.9921 73.3 33.5961 72.9C33.1987 72.5014 33 72.0069 33 71.4167C33 70.8264 33.1987 70.3319 33.5961 69.9333C33.9921 69.5333 34.4833 69.3333 35.0697 69.3333H76.464C77.0504 69.3333 77.5417 69.5333 77.9377 69.9333C78.335 70.3319 78.5337 70.8264 78.5337 71.4167C78.5337 72.0069 78.335 72.5014 77.9377 72.9C77.5417 73.3 77.0504 73.5 76.464 73.5H35.0697ZM39.2091 67.25C38.0708 67.25 37.0967 66.8424 36.2867 66.0271C35.4754 65.2104 35.0697 64.2292 35.0697 63.0833V40.1667C35.0697 39.0208 35.4754 38.0396 36.2867 37.2229C37.0967 36.4076 38.0708 36 39.2091 36H72.3246C73.4629 36 74.4378 36.4076 75.2491 37.2229C76.0591 38.0396 76.464 39.0208 76.464 40.1667V63.0833C76.464 64.2292 76.0591 65.2104 75.2491 66.0271C74.4378 66.8424 73.4629 67.25 72.3246 67.25H39.2091ZM39.2091 63.0833H72.3246V40.1667H39.2091V63.0833Z" fill="#2A82D3"/>
</svg>
