<svg width="36" height="36" viewBox="0 0 36 36" fill="none" xmlns="http://www.w3.org/2000/svg">
<circle cx="18" cy="18" r="17.5" stroke="#2A82D3"/>
<path d="M18.4167 26.5032C17.2589 25.5156 16.1857 24.4329 15.2083 23.2665C13.7417 21.5147 12 18.9059 12 16.4199C11.9994 15.1503 12.3754 13.909 13.0805 12.8532C13.7856 11.7973 14.788 10.9744 15.961 10.4885C17.1339 10.0026 18.4247 9.87561 19.6699 10.1236C20.915 10.3715 22.0587 10.9833 22.956 11.8815C23.5534 12.4763 24.027 13.1836 24.3492 13.9626C24.6715 14.7417 24.836 15.5769 24.8333 16.4199C24.8333 18.9059 23.0917 21.5147 21.625 23.2665C20.6477 24.4329 19.5745 25.5156 18.4167 26.5032ZM18.4167 13.6699C17.6873 13.6699 16.9878 13.9596 16.4721 14.4753C15.9564 14.9911 15.6667 15.6905 15.6667 16.4199C15.6667 17.1492 15.9564 17.8487 16.4721 18.3644C16.9878 18.8802 17.6873 19.1699 18.4167 19.1699C19.146 19.1699 19.8455 18.8802 20.3612 18.3644C20.8769 17.8487 21.1667 17.1492 21.1667 16.4199C21.1667 15.6905 20.8769 14.9911 20.3612 14.4753C19.8455 13.9596 19.146 13.6699 18.4167 13.6699Z" fill="#2A82D3"/>
</svg>
