<svg width="15" height="19" viewBox="0 0 15 19" fill="none" xmlns="http://www.w3.org/2000/svg">
<path d="M7.5 9.67578C8.01562 9.67578 8.45719 9.49203 8.82469 9.12453C9.19156 8.75766 9.375 8.31641 9.375 7.80078C9.375 7.28516 9.19156 6.84359 8.82469 6.47609C8.45719 6.10922 8.01562 5.92578 7.5 5.92578C6.98438 5.92578 6.54313 6.10922 6.17625 6.47609C5.80875 6.84359 5.625 7.28516 5.625 7.80078C5.625 8.31641 5.80875 8.75766 6.17625 9.12453C6.54313 9.49203 6.98438 9.67578 7.5 9.67578ZM7.5 18.6992C7.375 18.6992 7.25 18.6758 7.125 18.6289C7 18.582 6.89062 18.5195 6.79688 18.4414C4.51562 16.4258 2.8125 14.5548 1.6875 12.8286C0.5625 11.1017 0 9.48828 0 7.98828C0 5.64453 0.754063 3.77734 2.26219 2.38672C3.76969 0.996094 5.51562 0.300781 7.5 0.300781C9.48438 0.300781 11.2303 0.996094 12.7378 2.38672C14.2459 3.77734 15 5.64453 15 7.98828C15 9.48828 14.4375 11.1017 13.3125 12.8286C12.1875 14.5548 10.4844 16.4258 8.20312 18.4414C8.10938 18.5195 8 18.582 7.875 18.6289C7.75 18.6758 7.625 18.6992 7.5 18.6992Z" fill="white"/>
</svg>
