<svg width="60" height="60" viewBox="0 0 60 60" fill="none" xmlns="http://www.w3.org/2000/svg">
<circle cx="30" cy="30" r="29.5" stroke="#2A82D3"/>
<path d="M20.9167 41.25H31.125V44.1667H20.9167C19.2979 44.1667 18 42.8688 18 41.25V17.9167C18 17.1431 18.3073 16.4013 18.8543 15.8543C19.4013 15.3073 20.1431 15 20.9167 15H38.4167C39.1902 15 39.9321 15.3073 40.4791 15.8543C41.026 16.4013 41.3333 17.1431 41.3333 17.9167V30.3708L39.1458 29.175L38.4167 29.5833V17.9167H31.125V29.5833L27.4792 26.3021L23.8333 29.5833V17.9167H20.9167V41.25ZM47.1667 36.875L39.1458 32.5L31.125 36.875L39.1458 41.25L47.1667 36.875ZM34.0417 39.9229V42.8396L39.1458 45.625L44.25 42.8396V39.9229L39.1458 42.7083L34.0417 39.9229Z" fill="#2A82D3"/>
</svg>
