<svg width="15" height="15" viewBox="0 0 15 15" fill="none" xmlns="http://www.w3.org/2000/svg">
<path d="M14.1667 7.5C13.9444 7.5 13.7467 7.42 13.5733 7.26C13.3994 7.10056 13.2986 6.90278 13.2708 6.66667C13.0903 5.375 12.5453 4.27417 11.6358 3.36417C10.7258 2.45472 9.625 1.90972 8.33333 1.72917C8.09722 1.70139 7.89944 1.60417 7.74 1.4375C7.58 1.27083 7.5 1.06944 7.5 0.833333C7.5 0.597222 7.58333 0.399167 7.75 0.239167C7.91667 0.0797222 8.11111 0.0138888 8.33333 0.0416666C10.0833 0.236111 11.5764 0.951389 12.8125 2.1875C14.0486 3.42361 14.7639 4.91667 14.9583 6.66667C14.9861 6.88889 14.92 7.08333 14.76 7.25C14.6006 7.41667 14.4028 7.5 14.1667 7.5ZM10.6875 7.5C10.5069 7.5 10.3472 7.4375 10.2083 7.3125C10.0694 7.1875 9.96528 7.02083 9.89583 6.8125C9.78472 6.40972 9.57306 6.05194 9.26083 5.73917C8.94806 5.42694 8.59028 5.21528 8.1875 5.10417C7.97917 5.03472 7.8125 4.93056 7.6875 4.79167C7.5625 4.65278 7.5 4.48611 7.5 4.29167C7.5 4.01389 7.59722 3.78806 7.79167 3.61417C7.98611 3.44083 8.20139 3.38194 8.4375 3.4375C9.21528 3.61806 9.88556 3.98944 10.4483 4.55167C11.0106 5.11444 11.3819 5.78472 11.5625 6.5625C11.6181 6.79861 11.5556 7.01389 11.375 7.20833C11.1944 7.40278 10.9653 7.5 10.6875 7.5ZM14.125 15C12.3333 15 10.5869 14.6006 8.88583 13.8017C7.18417 13.0033 5.67722 11.9478 4.365 10.635C3.05222 9.32278 1.99667 7.81583 1.19833 6.11417C0.399445 4.41306 0 2.66667 0 0.875C0 0.625 0.0833333 0.416667 0.25 0.25C0.416667 0.0833333 0.625 0 0.875 0H4.25C4.44444 0 4.61806 0.0624999 4.77083 0.1875C4.92361 0.3125 5.01389 0.472222 5.04167 0.666667L5.58333 3.58333C5.61111 3.77778 5.60778 3.95472 5.57333 4.11417C5.53833 4.27417 5.45833 4.41667 5.33333 4.54167L3.33333 6.58333C3.91667 7.58333 4.64583 8.52083 5.52083 9.39583C6.39583 10.2708 7.36111 11.0278 8.41667 11.6667L10.375 9.70833C10.5 9.58333 10.6633 9.48944 10.865 9.42667C11.0661 9.36444 11.2639 9.34722 11.4583 9.375L14.3333 9.95833C14.5278 10 14.6875 10.0936 14.8125 10.2392C14.9375 10.3853 15 10.5556 15 10.75V14.125C15 14.375 14.9167 14.5833 14.75 14.75C14.5833 14.9167 14.375 15 14.125 15Z" fill="#2A82D3"/>
</svg>
