<svg width="111" height="110" viewBox="0 0 111 110" fill="none" xmlns="http://www.w3.org/2000/svg">
<ellipse cx="55.5565" cy="55" rx="54.865" ry="55" fill="#E1F1FF"/>
<path d="M57.2181 35.4219C56.3799 34.8594 55.2933 34.8594 54.4551 35.4219L43.9073 42.5H34.7255C32.6687 42.5 31 44.1797 31 46.25V71.25C31 73.3203 32.6687 75 34.7255 75H76.9477C79.0045 75 80.6732 73.3203 80.6732 71.25V46.25C80.6732 44.1797 79.0045 42.5 76.9477 42.5H67.7659L57.2181 35.4219ZM50.8693 67.5C50.8693 64.7422 53.0968 62.5 55.8366 62.5C58.5764 62.5 60.8039 64.7422 60.8039 67.5V75H50.8693V67.5ZM38.451 50H40.9346C41.6176 50 42.1765 50.5625 42.1765 51.25V56.25C42.1765 56.9375 41.6176 57.5 40.9346 57.5H38.451C37.768 57.5 37.2091 56.9375 37.2091 56.25V51.25C37.2091 50.5625 37.768 50 38.451 50ZM69.4967 51.25C69.4967 50.5625 70.0555 50 70.7385 50H73.2222C73.9052 50 74.464 50.5625 74.464 51.25V56.25C74.464 56.9375 73.9052 57.5 73.2222 57.5H70.7385C70.0555 57.5 69.4967 56.9375 69.4967 56.25V51.25ZM38.451 60H40.9346C41.6176 60 42.1765 60.5625 42.1765 61.25V66.25C42.1765 66.9375 41.6176 67.5 40.9346 67.5H38.451C37.768 67.5 37.2091 66.9375 37.2091 66.25V61.25C37.2091 60.5625 37.768 60 38.451 60ZM69.4967 61.25C69.4967 60.5625 70.0555 60 70.7385 60H73.2222C73.9052 60 74.464 60.5625 74.464 61.25V66.25C74.464 66.9375 73.9052 67.5 73.2222 67.5H70.7385C70.0555 67.5 69.4967 66.9375 69.4967 66.25V61.25ZM49.0065 48.75C49.0065 46.9266 49.7261 45.178 51.007 43.8886C52.2879 42.5993 54.0251 41.875 55.8366 41.875C57.648 41.875 59.3853 42.5993 60.6662 43.8886C61.9471 45.178 62.6666 46.9266 62.6666 48.75C62.6666 50.5734 61.9471 52.322 60.6662 53.6114C59.3853 54.9007 57.648 55.625 55.8366 55.625C54.0251 55.625 52.2879 54.9007 51.007 53.6114C49.7261 52.322 49.0065 50.5734 49.0065 48.75ZM55.8366 45C55.1536 45 54.5948 45.5625 54.5948 46.25V48.75C54.5948 49.4375 55.1536 50 55.8366 50H58.3202C59.0033 50 59.5621 49.4375 59.5621 48.75C59.5621 48.0625 59.0033 47.5 58.3202 47.5H57.0784V46.25C57.0784 45.5625 56.5196 45 55.8366 45Z" fill="#2A82D3"/>
</svg>
