<svg width="60" height="60" viewBox="0 0 60 60" fill="none" xmlns="http://www.w3.org/2000/svg">
<circle cx="30" cy="30" r="29.5" stroke="#2A82D3"/>
<path d="M19.6 22.2H17V40.4C17 41.83 18.17 43 19.6 43H37.8V40.4H19.6V22.2ZM40.4 17H24.8C23.37 17 22.2 18.17 22.2 19.6V35.2C22.2 36.63 23.37 37.8 24.8 37.8H40.4C41.83 37.8 43 36.63 43 35.2V19.6C43 18.17 41.83 17 40.4 17ZM40.4 35.2H24.8V19.6H40.4V35.2ZM27.4 26.1H37.8V28.7H27.4V26.1ZM27.4 30H32.6V32.6H27.4V30ZM27.4 22.2H37.8V24.8H27.4V22.2Z" fill="#2A82D3"/>
</svg>
