<svg width="20" height="19" viewBox="0 0 20 19" fill="none" xmlns="http://www.w3.org/2000/svg">
<path d="M19.3324 0.796499C19.0736 0.581174 18.7612 0.440066 18.4285 0.388195C18.0959 0.336325 17.7553 0.375633 17.4432 0.501936L1.15045 7.0796C0.80211 7.22297 0.5056 7.46886 0.300254 7.78465C0.0949073 8.10045 -0.00956795 8.47121 0.000688959 8.84776C0.0109459 9.22431 0.13545 9.58884 0.357683 9.89298C0.579916 10.1971 0.889373 10.4265 1.245 10.5507L4.54065 11.6971L6.37712 17.772C6.40229 17.8531 6.43871 17.9302 6.48531 18.0012C6.49258 18.0121 6.50258 18.0193 6.50985 18.0312C6.56343 18.1057 6.62812 18.1717 6.70168 18.2266C6.72222 18.2427 6.74345 18.2579 6.76532 18.2721C6.85144 18.3292 6.94679 18.3711 7.04716 18.3957L7.05898 18.3966L7.06443 18.3994C7.12519 18.4116 7.18702 18.4176 7.24899 18.4175L7.26535 18.4148C7.35846 18.4133 7.45077 18.3973 7.53901 18.3675C7.55992 18.3603 7.57719 18.3494 7.59719 18.3403C7.66319 18.3132 7.72575 18.2784 7.78357 18.2366C7.82961 18.1975 7.87568 18.1584 7.92176 18.1193L10.3783 15.4074L14.0421 18.2457C14.3646 18.4969 14.7616 18.6335 15.1704 18.6339C15.5988 18.6334 16.014 18.4856 16.3464 18.2153C16.6788 17.945 16.9081 17.5686 16.9959 17.1493L19.9625 2.58751C20.0296 2.25991 20.0064 1.92023 19.8954 1.60478C19.7845 1.28932 19.5899 1.00994 19.3324 0.796499ZM7.60901 11.9863C7.4831 12.1119 7.39708 12.2719 7.36172 12.4463L7.07989 13.8136L6.36712 11.4562L10.0628 9.53156L7.60901 11.9863ZM15.1567 16.8084L10.8265 13.4536C10.6453 13.3138 10.4181 13.2474 10.1901 13.2676C9.96213 13.2878 9.75015 13.3932 9.5964 13.5627L8.80908 14.4309L9.08728 13.079L15.5268 6.63957C15.6795 6.48585 15.7724 6.2826 15.7885 6.06647C15.8047 5.85033 15.7431 5.63553 15.6149 5.4608C15.4867 5.28606 15.3002 5.16289 15.0892 5.11347C14.8782 5.06406 14.6564 5.09166 14.464 5.1913L5.22251 10.0025L1.83594 8.76333L18.1815 2.22567L15.1567 16.8084Z" fill="white"/>
</svg>
