<svg width="111" height="110" viewBox="0 0 111 110" fill="none" xmlns="http://www.w3.org/2000/svg">
<ellipse cx="55.5188" cy="55" rx="54.865" ry="55" fill="#E1F1FF"/>
<path d="M57.8009 61.7016L52.0659 55.9976L52.1337 55.9294C55.9588 51.6505 58.8167 46.5878 60.5104 41.09H67.1259V36.545H51.3208V32H46.8051V36.545H31V41.09H56.2204C54.7076 45.4532 52.3143 49.6119 49.063 53.2479C46.9632 50.9072 45.2246 48.3393 43.8473 45.635H39.3315C40.9798 49.3392 43.2377 52.8388 46.06 55.9976L34.5674 67.4056L37.7736 70.6325L49.063 59.27L56.0849 66.3375L57.8009 61.7016ZM70.5127 50.18H65.997L55.8366 77.45H60.3523L62.8811 70.6325H73.606L76.1574 77.45H80.6732L70.5127 50.18ZM64.5971 66.0875L68.2549 56.2476L71.9126 66.0875H64.5971Z" fill="#2A82D3"/>
</svg>
