<svg width="58" height="39" viewBox="0 0 58 39" fill="none" xmlns="http://www.w3.org/2000/svg">
<rect y="8" width="58" height="31" fill="#2A82D3"/>
<path d="M48 0C46.8 2.4 44.5 6.33333 43.5 8L50.5 8.5C50.5 8.33333 50 6.4 48 0Z" fill="#2A82D3"/>
<path d="M25.632 29.176C24.704 29.176 23.8827 28.9787 23.168 28.584C22.464 28.1893 21.9093 27.6453 21.504 26.952C21.1093 26.248 20.912 25.448 20.912 24.552V17.704H23.44V24.696C23.44 25.144 23.536 25.5333 23.728 25.864C23.92 26.1947 24.1813 26.4507 24.512 26.632C24.8533 26.8027 25.2267 26.888 25.632 26.888C26.0587 26.888 26.432 26.8027 26.752 26.632C27.072 26.4507 27.3227 26.2 27.504 25.88C27.696 25.5493 27.792 25.16 27.792 24.712V17.704H30.32V24.568C30.32 25.464 30.1227 26.2587 29.728 26.952C29.3333 27.6453 28.784 28.1893 28.08 28.584C27.376 28.9787 26.56 29.176 25.632 29.176ZM31.6024 27.56L35.5064 22.648H38.4824L34.5784 27.56H31.6024ZM31.6024 29V27.56L33.3464 26.952H38.3864V29H31.6024ZM31.8904 23.272V21.224H38.4824V22.648L36.7544 23.272H31.8904Z" fill="white"/>
</svg>
